<svg width="40" height="40" viewBox="0 0 40 40" fill="none" xmlns="http://www.w3.org/2000/svg">
<g clip-path="url(#clip0_720_10)">
<path d="M0.185786 17.1163C0.0904949 17.7841 0.0284926 18.4563 0 19.1303H30.3828C30.2767 18.9231 30.1341 18.7362 29.9904 18.5533C24.7963 11.8427 22.0022 12.4246 18.0053 12.2541C16.6727 12.1993 15.769 12.1772 10.4648 12.1772C7.62582 12.1772 4.53945 12.1845 1.53397 12.1925C1.14494 13.2426 0.769703 14.2605 0.587004 15.0886H16.1562V17.1163H0.185786ZM30.6222 21.1601H0.0156166C0.0476496 21.7011 0.0981016 22.2349 0.170976 22.7616H28.4284C29.6881 22.7616 30.3932 22.0469 30.6222 21.1601ZM1.75848 28.2933C1.75848 28.2933 6.44301 39.7958 19.9789 40.0001C28.0692 40.0001 35.0207 35.1951 38.1784 28.2933H1.75848Z" fill="black"/>
<path d="M19.9786 0C12.4981 0 5.98862 4.10781 2.55109 10.1802C5.23745 10.1745 10.4692 10.1713 10.4692 10.1713H10.4704V10.1693C16.6544 10.1693 16.8842 10.197 18.0922 10.2474L18.8402 10.275C21.4457 10.3618 24.6482 10.6415 27.168 12.548C28.5357 13.582 30.5106 15.8643 31.6878 17.4902C32.7761 18.9941 33.0892 20.7229 32.3492 22.3792C31.6682 23.9014 30.2027 24.8095 28.428 24.8095H0.651855C0.651855 24.8095 0.817203 25.5104 1.06516 26.2841H38.9805C39.6538 24.2602 39.998 22.1414 39.9999 20.0085C40.0003 8.95918 31.0363 0 19.9786 0Z" fill="black"/>
</g>
<defs>
<clipPath id="clip0_720_10">
<rect width="40" height="40" fill="white"/>
</clipPath>
</defs>
</svg>
